<svg width="1440" height="78" viewBox="0 0 1440 78" fill="none" xmlns="http://www.w3.org/2000/svg">
<path d="M1441.5 0.25H-1.5V77.5043H1441.5V0.25Z" fill="#232323"/>
<path d="M94.7 0.25H-1.5V77.5043H94.7V0.25Z" fill="#232323"/>
<path d="M46.5957 0.25H-1.5V38.8737H46.5957V0.25Z" fill="#282828"/>
<path d="M-1.5 38.8737C-1.5 28.6301 3.56721 18.806 12.5869 11.5626C21.6066 4.31927 33.8399 0.25 46.5957 0.25V38.8737" fill="#363636"/>
<path d="M94.6914 0.25H46.5957V38.8737H94.6914V0.25Z" fill="#242424"/>
<path d="M46.5957 0.25C59.3515 0.25 71.5848 4.31927 80.6045 11.5626C89.6242 18.806 94.6914 28.6301 94.6914 38.8737H46.5957" fill="#282828"/>
<path d="M46.5957 38.8737H-1.5V77.4974H46.5957V38.8737Z" fill="#272727"/>
<path d="M-1.5 38.8737C-1.5 49.1174 3.56721 58.9415 12.5869 66.1848C21.6066 73.4282 33.8399 77.4974 46.5957 77.4974V38.8737" fill="#2F2F2F"/>
<path d="M94.6914 38.8737H46.5957V77.4974H94.6914V38.8737Z" fill="#262626"/>
<path d="M46.5957 77.4974C59.3515 77.4974 71.5848 73.4282 80.6045 66.1848C89.6242 58.9415 94.6914 49.1174 94.6914 38.8737H46.5957" fill="#2B2B2B"/>
<path d="M190.9 0.25H94.7002V77.5043H190.9V0.25Z" fill="#232323"/>
<path d="M142.8 0.25H94.7041V38.8737H142.8V0.25Z" fill="#454545"/>
<path d="M142.8 0.25V38.8737H94.7041L142.8 0.25Z" fill="#252525"/>
<path d="M190.896 0.25H142.8V38.8737H190.896V0.25Z" fill="#2D2D2D"/>
<path d="M142.8 0.25L190.896 38.8737H142.8V0.25Z" fill="#2E2E2E"/>
<path d="M142.8 38.8737H94.7041V77.4974H142.8V38.8737Z" fill="#323232"/>
<path d="M94.7041 38.8737H142.8L94.7041 77.4974V38.8737Z" fill="#414141"/>
<path d="M190.896 38.8737H142.8V77.4974H190.896V38.8737Z" fill="#4A4A4A"/>
<path d="M142.8 38.8737H190.896V77.4974L142.8 38.8737Z" fill="#313131"/>
<path d="M287.1 0.25H190.9V77.5043H287.1V0.25Z" fill="#232323"/>
<path d="M238.991 0.25H190.896V38.8737H238.991V0.25Z" fill="#313131"/>
<path d="M238.991 0.25V38.8737H190.896L238.991 0.25Z" fill="#454545"/>
<path d="M287.1 0.25H239.004V38.8737H287.1V0.25Z" fill="#444444"/>
<path d="M239.004 0.25L287.1 38.8737H239.004V0.25Z" fill="#242424"/>
<path d="M238.991 38.8737H190.896V77.4974H238.991V38.8737Z" fill="#2B2B2B"/>
<path d="M190.896 38.8737H238.991V77.4974L190.896 38.8737Z" fill="#424242"/>
<path d="M287.1 38.8737H239.004V77.4974H287.1V38.8737Z" fill="#282828"/>
<path d="M239.004 38.8737H287.1L239.004 77.4974V38.8737Z" fill="#313131"/>
<path d="M383.304 0.25H287.1V77.5077H383.304V0.25Z" fill="#313131"/>
<path d="M287.1 0.25H383.304V77.5077L287.1 0.25Z" fill="#2B2B2B"/>
<path d="M479.508 0.25H383.304V77.5077H479.508V0.25Z" fill="#3E3E3E"/>
<path d="M383.304 77.5077C383.304 57.0177 393.44 37.3669 411.482 22.8783C429.524 8.38963 453.994 0.25 479.508 0.25L383.304 77.5077C408.819 77.5077 433.289 69.3681 451.331 54.8795C469.373 40.3908 479.508 20.74 479.508 0.25" fill="#4B4B4B"/>
<path d="M575.7 0.25H479.496V77.5077H575.7V0.25Z" fill="#4D4D4D"/>
<path d="M479.496 0.25L575.7 77.5077H479.496V0.25Z" fill="#2A2A2A"/>
<path d="M671.904 0.25H575.7V77.5077H671.904V0.25Z" fill="#272727"/>
<path d="M575.7 0.25H671.904L575.7 77.5077V0.25Z" fill="#4E4E4E"/>
<path d="M768.1 0.25H671.9V77.5043H768.1V0.25Z" fill="#232323"/>
<path d="M720 0.25H671.904V38.8737H720V0.25Z" fill="#2B2B2B"/>
<path d="M695.952 38.8737C709.233 38.8737 720 30.2275 720 19.5619C720 8.89621 709.233 0.25 695.952 0.25C682.671 0.25 671.904 8.89621 671.904 19.5619C671.904 30.2275 682.671 38.8737 695.952 38.8737Z" fill="#3D3D3D"/>
<path d="M768.096 0.25H720V38.8737H768.096V0.25Z" fill="#313131"/>
<path d="M768.096 0.25H720V38.8737H768.096V0.25Z" fill="#414141"/>
<path d="M720 38.8737H671.904V77.4974H720V38.8737Z" fill="#4D4D4D"/>
<path d="M695.952 77.4974C709.233 77.4974 720 68.8512 720 58.1856C720 47.5199 709.233 38.8737 695.952 38.8737C682.671 38.8737 671.904 47.5199 671.904 58.1856C671.904 68.8512 682.671 77.4974 695.952 77.4974Z" fill="#323232"/>
<path d="M768.096 38.8737H720V77.4974H768.096V38.8737Z" fill="#2F2F2F"/>
<path d="M768.096 38.8737H720V77.4974H768.096V38.8737Z" fill="#252525"/>
<path d="M864.3 0.25H768.096V77.5077H864.3V0.25Z" fill="#292929"/>
<path d="M864.3 0.25H768.096V77.5077H864.3V0.25Z" fill="#282828"/>
<path d="M960.5 0.25H864.3V77.5043H960.5V0.25Z" fill="#232323"/>
<path d="M912.396 0.25H864.3V38.8737H912.396V0.25Z" fill="#464646"/>
<path d="M912.396 0.25V38.8737H864.3L912.396 0.25Z" fill="#4B4B4B"/>
<path d="M960.491 0.25H912.396V38.8737H960.491V0.25Z" fill="#2B2B2B"/>
<path d="M912.396 0.25L960.491 38.8737H912.396V0.25Z" fill="#3B3B3B"/>
<path d="M912.396 38.8737H864.3V77.4974H912.396V38.8737Z" fill="#242424"/>
<path d="M864.3 38.8737H912.396L864.3 77.4974V38.8737Z" fill="#414141"/>
<path d="M960.491 38.8737H912.396V77.4974H960.491V38.8737Z" fill="#2B2B2B"/>
<path d="M912.396 38.8737H960.491V77.4974L912.396 38.8737Z" fill="#252525"/>
<path d="M1056.7 0.25H960.5V77.5043H1056.7V0.25Z" fill="#232323"/>
<path d="M1008.6 0.25H960.504V38.8737H1008.6V0.25Z" fill="#2D2D2D"/>
<path d="M984.552 38.8737C997.833 38.8737 1008.6 30.2275 1008.6 19.5619C1008.6 8.89621 997.833 0.25 984.552 0.25C971.271 0.25 960.504 8.89621 960.504 19.5619C960.504 30.2275 971.271 38.8737 984.552 38.8737Z" fill="#2D2D2D"/>
<path d="M1056.7 0.25H1008.6V38.8737H1056.7V0.25Z" fill="#303030"/>
<path d="M1056.7 0.25H1008.6V38.8737H1056.7V0.25Z" fill="#252525"/>
<path d="M1008.6 38.8737H960.504V77.4974H1008.6V38.8737Z" fill="#303030"/>
<path d="M984.552 77.4974C997.833 77.4974 1008.6 68.8512 1008.6 58.1856C1008.6 47.5199 997.833 38.8737 984.552 38.8737C971.271 38.8737 960.504 47.5199 960.504 58.1856C960.504 68.8512 971.271 77.4974 984.552 77.4974Z" fill="#343434"/>
<path d="M1056.7 38.8737H1008.6V77.4974H1056.7V38.8737Z" fill="#414141"/>
<path d="M1056.7 38.8737H1008.6V77.4974H1056.7V38.8737Z" fill="#2F2F2F"/>
<path d="M1152.9 0.25H1056.7V77.5043H1152.9V0.25Z" fill="#232323"/>
<path d="M1104.79 0.25H1056.7V38.8737H1104.79V0.25Z" fill="#414141"/>
<path d="M1056.7 0.25C1069.45 0.25 1081.68 4.31927 1090.7 11.5626C1099.72 18.806 1104.79 28.6301 1104.79 38.8737H1056.7" fill="#282828"/>
<path d="M1152.9 0.25H1104.8V38.8737H1152.9V0.25Z" fill="#323232"/>
<path d="M1104.8 38.8737C1104.8 28.6301 1109.87 18.806 1118.89 11.5626C1127.91 4.31927 1140.14 0.25 1152.9 0.25V38.8737" fill="#2D2D2D"/>
<path d="M1104.79 38.8737H1056.7V77.4974H1104.79V38.8737Z" fill="#444444"/>
<path d="M1056.7 77.4974C1069.45 77.4974 1081.68 73.4282 1090.7 66.1848C1099.72 58.9415 1104.79 49.1174 1104.79 38.8737H1056.7" fill="#303030"/>
<path d="M1152.9 38.8737H1104.8V77.4974H1152.9V38.8737Z" fill="#303030"/>
<path d="M1104.8 38.8737C1104.8 49.1174 1109.87 58.9415 1118.89 66.1848C1127.91 73.4282 1140.14 77.4974 1152.9 77.4974V38.8737" fill="#303030"/>
<path d="M1249.1 0.25H1152.9V77.5043H1249.1V0.25Z" fill="#232323"/>
<path d="M1201 0.25H1152.9V38.8737H1201V0.25Z" fill="#2A2A2A"/>
<path d="M1176.95 38.8737C1190.23 38.8737 1201 30.2275 1201 19.5619C1201 8.89621 1190.23 0.25 1176.95 0.25C1163.67 0.25 1152.9 8.89621 1152.9 19.5619C1152.9 30.2275 1163.67 38.8737 1176.95 38.8737Z" fill="#2A2A2A"/>
<path d="M1249.09 0.25H1201V38.8737H1249.09V0.25Z" fill="#2E2E2E"/>
<path d="M1249.09 0.25H1201V38.8737H1249.09V0.25Z" fill="#2D2D2D"/>
<path d="M1201 38.8737H1152.9V77.4974H1201V38.8737Z" fill="#272727"/>
<path d="M1176.95 77.4974C1190.23 77.4974 1201 68.8512 1201 58.1856C1201 47.5199 1190.23 38.8737 1176.95 38.8737C1163.67 38.8737 1152.9 47.5199 1152.9 58.1856C1152.9 68.8512 1163.67 77.4974 1176.95 77.4974Z" fill="#2E2E2E"/>
<path d="M1249.09 38.8737H1201V77.4974H1249.09V38.8737Z" fill="#2D2D2D"/>
<path d="M1249.09 38.8737H1201V77.4974H1249.09V38.8737Z" fill="#232323"/>
<path d="M1345.31 0.25H1249.1V77.5077H1345.31V0.25Z" fill="#262626"/>
<path d="M1249.1 0.25C1274.62 0.25 1299.09 8.38963 1317.13 22.8783C1335.17 37.3669 1345.31 57.0177 1345.31 77.5077H1249.1" fill="#333333"/>
<path d="M1441.5 0.25H1345.3V77.5043H1441.5V0.25Z" fill="#232323"/>
<path d="M1393.39 0.25H1345.3V38.8737H1393.39V0.25Z" fill="#3B3B3B"/>
<path d="M1369.34 38.8737C1382.62 38.8737 1393.39 30.2275 1393.39 19.5619C1393.39 8.89621 1382.62 0.25 1369.34 0.25C1356.06 0.25 1345.3 8.89621 1345.3 19.5619C1345.3 30.2275 1356.06 38.8737 1369.34 38.8737Z" fill="#3D3D3D"/>
<path d="M1441.5 0.25H1393.4V38.8737H1441.5V0.25Z" fill="#2F2F2F"/>
<path d="M1441.5 0.25H1393.4V38.8737H1441.5V0.25Z" fill="#272727"/>
<path d="M1393.39 38.8737H1345.3V77.4974H1393.39V38.8737Z" fill="#454545"/>
<path d="M1369.34 77.4974C1382.62 77.4974 1393.39 68.8512 1393.39 58.1856C1393.39 47.5199 1382.62 38.8737 1369.34 38.8737C1356.06 38.8737 1345.3 47.5199 1345.3 58.1856C1345.3 68.8512 1356.06 77.4974 1369.34 77.4974Z" fill="#2D2D2D"/>
<path d="M1441.5 38.8737H1393.4V77.4974H1441.5V38.8737Z" fill="#383838"/>
<path d="M1441.5 38.8737H1393.4V77.4974H1441.5V38.8737Z" fill="#292929"/>
</svg>
